<mxfile host="app.diagrams.net" modified="2023-05-23T16:04:17.978Z" agent="Mozilla/5.0 (X11; Ubuntu; Linux x86_64; rv:109.0) Gecko/20100101 Firefox/113.0" etag="J7E3UXq5JS2VKHzYLXnB" version="21.3.2" type="device">
  <diagram name="Seite-1" id="o-xYCfEbXTVS4yVhGQbz">
    <mxGraphModel dx="2536" dy="568" grid="1" gridSize="10" guides="1" tooltips="1" connect="1" arrows="1" fold="1" page="1" pageScale="1" pageWidth="1169" pageHeight="827" math="0" shadow="0">
      <root>
        <mxCell id="0" />
        <mxCell id="1" parent="0" />
        <mxCell id="jcQPPuOPFq5n-dl-Zgb4-7" value="" style="endArrow=classic;html=1;rounded=0;exitX=1;exitY=0.5;exitDx=0;exitDy=0;entryX=0;entryY=0.75;entryDx=0;entryDy=0;" parent="1" source="3KIOxPF4NHvI4WSVQsfi-3" target="3KIOxPF4NHvI4WSVQsfi-6" edge="1">
          <mxGeometry width="50" height="50" relative="1" as="geometry">
            <mxPoint x="280" y="380" as="sourcePoint" />
            <mxPoint x="330" y="330" as="targetPoint" />
          </mxGeometry>
        </mxCell>
        <mxCell id="jcQPPuOPFq5n-dl-Zgb4-8" value="" style="endArrow=classic;html=1;rounded=0;entryX=0;entryY=0.5;entryDx=0;entryDy=0;exitX=1;exitY=0.5;exitDx=0;exitDy=0;" parent="1" target="3KIOxPF4NHvI4WSVQsfi-6" edge="1" source="3KIOxPF4NHvI4WSVQsfi-5">
          <mxGeometry width="50" height="50" relative="1" as="geometry">
            <mxPoint x="110" y="215" as="sourcePoint" />
            <mxPoint x="360" y="370" as="targetPoint" />
          </mxGeometry>
        </mxCell>
        <mxCell id="jcQPPuOPFq5n-dl-Zgb4-9" value="" style="endArrow=classic;html=1;rounded=0;exitX=1;exitY=0.5;exitDx=0;exitDy=0;entryX=0;entryY=1;entryDx=0;entryDy=0;" parent="1" source="3KIOxPF4NHvI4WSVQsfi-4" target="3KIOxPF4NHvI4WSVQsfi-6" edge="1">
          <mxGeometry width="50" height="50" relative="1" as="geometry">
            <mxPoint x="130" y="340" as="sourcePoint" />
            <mxPoint x="340" y="360" as="targetPoint" />
          </mxGeometry>
        </mxCell>
        <mxCell id="jcQPPuOPFq5n-dl-Zgb4-12" value="" style="endArrow=classic;html=1;rounded=0;exitX=1;exitY=0.5;exitDx=0;exitDy=0;entryX=0;entryY=0.5;entryDx=0;entryDy=0;" parent="1" source="3KIOxPF4NHvI4WSVQsfi-6" target="3KIOxPF4NHvI4WSVQsfi-7" edge="1">
          <mxGeometry width="50" height="50" relative="1" as="geometry">
            <mxPoint x="270" y="235" as="sourcePoint" />
            <mxPoint x="320" y="242.5" as="targetPoint" />
          </mxGeometry>
        </mxCell>
        <mxCell id="jcQPPuOPFq5n-dl-Zgb4-13" value="" style="endArrow=classic;html=1;rounded=0;exitX=0.5;exitY=0;exitDx=0;exitDy=0;entryX=0.067;entryY=1.022;entryDx=0;entryDy=0;entryPerimeter=0;" parent="1" source="3KIOxPF4NHvI4WSVQsfi-2" target="3KIOxPF4NHvI4WSVQsfi-6" edge="1">
          <mxGeometry width="50" height="50" relative="1" as="geometry">
            <mxPoint x="130" y="403" as="sourcePoint" />
            <mxPoint x="150" y="260" as="targetPoint" />
          </mxGeometry>
        </mxCell>
        <mxCell id="jcQPPuOPFq5n-dl-Zgb4-15" value="" style="endArrow=classic;html=1;rounded=0;exitX=1;exitY=0.5;exitDx=0;exitDy=0;entryX=0.433;entryY=0;entryDx=0;entryDy=0;entryPerimeter=0;" parent="1" source="3KIOxPF4NHvI4WSVQsfi-7" target="3KIOxPF4NHvI4WSVQsfi-8" edge="1">
          <mxGeometry width="50" height="50" relative="1" as="geometry">
            <mxPoint x="440" y="242.5" as="sourcePoint" />
            <mxPoint x="470" y="310" as="targetPoint" />
          </mxGeometry>
        </mxCell>
        <mxCell id="jcQPPuOPFq5n-dl-Zgb4-18" value="" style="endArrow=classic;html=1;rounded=0;exitX=0.992;exitY=0.675;exitDx=0;exitDy=0;exitPerimeter=0;entryX=0;entryY=0.5;entryDx=0;entryDy=0;" parent="1" target="3KIOxPF4NHvI4WSVQsfi-14" edge="1">
          <mxGeometry width="50" height="50" relative="1" as="geometry">
            <mxPoint x="529.04" y="364" as="sourcePoint" />
            <mxPoint x="585" y="370" as="targetPoint" />
          </mxGeometry>
        </mxCell>
        <mxCell id="jcQPPuOPFq5n-dl-Zgb4-20" value="" style="endArrow=classic;html=1;rounded=0;exitX=1;exitY=0.5;exitDx=0;exitDy=0;entryX=0;entryY=0.25;entryDx=0;entryDy=0;" parent="1" source="3KIOxPF4NHvI4WSVQsfi-14" target="3KIOxPF4NHvI4WSVQsfi-17" edge="1">
          <mxGeometry width="50" height="50" relative="1" as="geometry">
            <mxPoint x="705" y="370" as="sourcePoint" />
            <mxPoint x="740" y="390" as="targetPoint" />
          </mxGeometry>
        </mxCell>
        <mxCell id="jcQPPuOPFq5n-dl-Zgb4-22" value="" style="endArrow=classic;html=1;rounded=0;exitX=1;exitY=0.5;exitDx=0;exitDy=0;entryX=0;entryY=0.75;entryDx=0;entryDy=0;" parent="1" source="3KIOxPF4NHvI4WSVQsfi-1" target="3KIOxPF4NHvI4WSVQsfi-19" edge="1">
          <mxGeometry width="50" height="50" relative="1" as="geometry">
            <mxPoint x="350" y="500" as="sourcePoint" />
            <mxPoint x="860" y="494.47368421052636" as="targetPoint" />
          </mxGeometry>
        </mxCell>
        <mxCell id="jcQPPuOPFq5n-dl-Zgb4-23" value="" style="endArrow=classic;html=1;rounded=0;entryX=0;entryY=0.5;entryDx=0;entryDy=0;exitX=0.5;exitY=1;exitDx=0;exitDy=0;" parent="1" source="3KIOxPF4NHvI4WSVQsfi-17" target="3KIOxPF4NHvI4WSVQsfi-19" edge="1">
          <mxGeometry width="50" height="50" relative="1" as="geometry">
            <mxPoint x="780" y="450" as="sourcePoint" />
            <mxPoint x="860" y="470" as="targetPoint" />
          </mxGeometry>
        </mxCell>
        <mxCell id="jcQPPuOPFq5n-dl-Zgb4-26" value="" style="endArrow=classic;html=1;rounded=0;exitX=0.975;exitY=0.263;exitDx=0;exitDy=0;exitPerimeter=0;entryX=0;entryY=0.75;entryDx=0;entryDy=0;" parent="1" target="3KIOxPF4NHvI4WSVQsfi-9" edge="1">
          <mxGeometry width="50" height="50" relative="1" as="geometry">
            <mxPoint x="527" y="331.03999999999996" as="sourcePoint" />
            <mxPoint x="670" y="47.5" as="targetPoint" />
          </mxGeometry>
        </mxCell>
        <mxCell id="jcQPPuOPFq5n-dl-Zgb4-28" value="" style="endArrow=classic;html=1;rounded=0;entryX=0.192;entryY=1;entryDx=0;entryDy=0;exitX=0.583;exitY=0.062;exitDx=0;exitDy=0;exitPerimeter=0;entryPerimeter=0;" parent="1" source="3KIOxPF4NHvI4WSVQsfi-17" target="3KIOxPF4NHvI4WSVQsfi-18" edge="1">
          <mxGeometry width="50" height="50" relative="1" as="geometry">
            <mxPoint x="808.04" y="390" as="sourcePoint" />
            <mxPoint x="895" y="325" as="targetPoint" />
          </mxGeometry>
        </mxCell>
        <mxCell id="jcQPPuOPFq5n-dl-Zgb4-30" value="" style="endArrow=classic;html=1;rounded=0;exitX=1;exitY=0.75;exitDx=0;exitDy=0;entryX=0;entryY=0.5;entryDx=0;entryDy=0;" parent="1" source="3KIOxPF4NHvI4WSVQsfi-18" target="3KIOxPF4NHvI4WSVQsfi-11" edge="1">
          <mxGeometry width="50" height="50" relative="1" as="geometry">
            <mxPoint x="960" y="310" as="sourcePoint" />
            <mxPoint x="1060" y="290" as="targetPoint" />
          </mxGeometry>
        </mxCell>
        <mxCell id="jcQPPuOPFq5n-dl-Zgb4-34" value="" style="endArrow=classic;html=1;rounded=0;exitX=1;exitY=0.5;exitDx=0;exitDy=0;entryX=0;entryY=0.5;entryDx=0;entryDy=0;" parent="1" source="3KIOxPF4NHvI4WSVQsfi-20" target="3KIOxPF4NHvI4WSVQsfi-22" edge="1">
          <mxGeometry width="50" height="50" relative="1" as="geometry">
            <mxPoint x="917.96" y="632.98" as="sourcePoint" />
            <mxPoint x="1020" y="630" as="targetPoint" />
          </mxGeometry>
        </mxCell>
        <mxCell id="jcQPPuOPFq5n-dl-Zgb4-35" value="" style="endArrow=classic;html=1;rounded=0;exitX=0.75;exitY=0;exitDx=0;exitDy=0;entryX=0;entryY=1;entryDx=0;entryDy=0;" parent="1" source="3KIOxPF4NHvI4WSVQsfi-21" target="3KIOxPF4NHvI4WSVQsfi-22" edge="1">
          <mxGeometry width="50" height="50" relative="1" as="geometry">
            <mxPoint x="945" y="700" as="sourcePoint" />
            <mxPoint x="1060" y="650" as="targetPoint" />
          </mxGeometry>
        </mxCell>
        <mxCell id="jcQPPuOPFq5n-dl-Zgb4-38" value="" style="endArrow=classic;html=1;rounded=0;exitX=0.642;exitY=0.031;exitDx=0;exitDy=0;exitPerimeter=0;entryX=0.25;entryY=1;entryDx=0;entryDy=0;" parent="1" source="3KIOxPF4NHvI4WSVQsfi-22" target="3KIOxPF4NHvI4WSVQsfi-23" edge="1">
          <mxGeometry width="50" height="50" relative="1" as="geometry">
            <mxPoint x="1098.96" y="608" as="sourcePoint" />
            <mxPoint x="1190.04" y="542" as="targetPoint" />
          </mxGeometry>
        </mxCell>
        <mxCell id="jcQPPuOPFq5n-dl-Zgb4-39" value="" style="endArrow=classic;html=1;rounded=0;exitX=1;exitY=0.5;exitDx=0;exitDy=0;entryX=0.25;entryY=0;entryDx=0;entryDy=0;" parent="1" source="3KIOxPF4NHvI4WSVQsfi-23" target="3KIOxPF4NHvI4WSVQsfi-24" edge="1">
          <mxGeometry width="50" height="50" relative="1" as="geometry">
            <mxPoint x="1260" y="520" as="sourcePoint" />
            <mxPoint x="1330" y="580" as="targetPoint" />
          </mxGeometry>
        </mxCell>
        <mxCell id="jcQPPuOPFq5n-dl-Zgb4-40" value="" style="endArrow=classic;html=1;rounded=0;entryX=0;entryY=0.5;entryDx=0;entryDy=0;exitX=0.767;exitY=0.925;exitDx=0;exitDy=0;exitPerimeter=0;" parent="1" source="3KIOxPF4NHvI4WSVQsfi-8" target="3KIOxPF4NHvI4WSVQsfi-20" edge="1">
          <mxGeometry width="50" height="50" relative="1" as="geometry">
            <mxPoint x="507.48170285326523" y="381.2347523777212" as="sourcePoint" />
            <mxPoint x="800" y="625" as="targetPoint" />
          </mxGeometry>
        </mxCell>
        <mxCell id="jcQPPuOPFq5n-dl-Zgb4-41" value="" style="endArrow=classic;html=1;rounded=0;exitX=0.45;exitY=1.013;exitDx=0;exitDy=0;entryX=0;entryY=0.5;entryDx=0;entryDy=0;exitPerimeter=0;" parent="1" source="3KIOxPF4NHvI4WSVQsfi-8" target="3KIOxPF4NHvI4WSVQsfi-21" edge="1">
          <mxGeometry width="50" height="50" relative="1" as="geometry">
            <mxPoint x="470" y="390" as="sourcePoint" />
            <mxPoint x="855" y="722.5" as="targetPoint" />
          </mxGeometry>
        </mxCell>
        <mxCell id="jcQPPuOPFq5n-dl-Zgb4-42" value="Document Results 3" style="rounded=0;whiteSpace=wrap;html=1;" parent="1" vertex="1">
          <mxGeometry x="1350" y="20" width="120" height="40" as="geometry" />
        </mxCell>
        <mxCell id="jcQPPuOPFq5n-dl-Zgb4-43" value="Prepare Presentation" style="rounded=0;whiteSpace=wrap;html=1;" parent="1" vertex="1">
          <mxGeometry x="1360" y="420" width="130" height="30" as="geometry" />
        </mxCell>
        <mxCell id="jcQPPuOPFq5n-dl-Zgb4-44" value="&lt;div&gt;Milestone 3&lt;/div&gt;" style="ellipse;whiteSpace=wrap;html=1;" parent="1" vertex="1">
          <mxGeometry x="1570" y="437.5" width="120" height="80" as="geometry" />
        </mxCell>
        <mxCell id="jcQPPuOPFq5n-dl-Zgb4-45" value="" style="endArrow=classic;html=1;rounded=0;exitX=0.75;exitY=0;exitDx=0;exitDy=0;entryX=0.369;entryY=0.967;entryDx=0;entryDy=0;entryPerimeter=0;" parent="1" source="3KIOxPF4NHvI4WSVQsfi-24" target="jcQPPuOPFq5n-dl-Zgb4-43" edge="1">
          <mxGeometry width="50" height="50" relative="1" as="geometry">
            <mxPoint x="1390" y="587.5" as="sourcePoint" />
            <mxPoint x="1520" y="450" as="targetPoint" />
          </mxGeometry>
        </mxCell>
        <mxCell id="jcQPPuOPFq5n-dl-Zgb4-46" value="" style="endArrow=classic;html=1;rounded=0;exitX=0.5;exitY=0;exitDx=0;exitDy=0;" parent="1" source="jcQPPuOPFq5n-dl-Zgb4-44" target="jcQPPuOPFq5n-dl-Zgb4-42" edge="1">
          <mxGeometry width="50" height="50" relative="1" as="geometry">
            <mxPoint x="1200" y="500" as="sourcePoint" />
            <mxPoint x="1250" y="450" as="targetPoint" />
          </mxGeometry>
        </mxCell>
        <mxCell id="jcQPPuOPFq5n-dl-Zgb4-48" value="" style="endArrow=classic;html=1;rounded=0;entryX=0.5;entryY=1;entryDx=0;entryDy=0;exitX=0.342;exitY=0.05;exitDx=0;exitDy=0;exitPerimeter=0;" parent="1" source="3KIOxPF4NHvI4WSVQsfi-11" target="3KIOxPF4NHvI4WSVQsfi-10" edge="1">
          <mxGeometry width="50" height="50" relative="1" as="geometry">
            <mxPoint x="1102" y="252" as="sourcePoint" />
            <mxPoint x="1070" y="65" as="targetPoint" />
          </mxGeometry>
        </mxCell>
        <mxCell id="jcQPPuOPFq5n-dl-Zgb4-49" value="" style="endArrow=classic;html=1;rounded=0;exitX=0.5;exitY=1;exitDx=0;exitDy=0;" parent="1" source="jcQPPuOPFq5n-dl-Zgb4-43" target="jcQPPuOPFq5n-dl-Zgb4-44" edge="1">
          <mxGeometry width="50" height="50" relative="1" as="geometry">
            <mxPoint x="1450" y="530" as="sourcePoint" />
            <mxPoint x="1500" y="480" as="targetPoint" />
          </mxGeometry>
        </mxCell>
        <mxCell id="jcQPPuOPFq5n-dl-Zgb4-51" value="Decide on Events" style="rounded=0;whiteSpace=wrap;html=1;" parent="1" vertex="1">
          <mxGeometry x="1280" y="250" width="120" height="37" as="geometry" />
        </mxCell>
        <mxCell id="jcQPPuOPFq5n-dl-Zgb4-52" value="" style="endArrow=classic;html=1;rounded=0;entryX=0.377;entryY=0.067;entryDx=0;entryDy=0;entryPerimeter=0;exitX=1;exitY=1;exitDx=0;exitDy=0;" parent="1" source="jcQPPuOPFq5n-dl-Zgb4-51" target="jcQPPuOPFq5n-dl-Zgb4-43" edge="1">
          <mxGeometry width="50" height="50" relative="1" as="geometry">
            <mxPoint x="1260" y="410" as="sourcePoint" />
            <mxPoint x="1310" y="360" as="targetPoint" />
          </mxGeometry>
        </mxCell>
        <mxCell id="jcQPPuOPFq5n-dl-Zgb4-53" value="" style="endArrow=classic;html=1;rounded=0;entryX=0.5;entryY=1;entryDx=0;entryDy=0;" parent="1" source="3KIOxPF4NHvI4WSVQsfi-24" target="jcQPPuOPFq5n-dl-Zgb4-51" edge="1">
          <mxGeometry width="50" height="50" relative="1" as="geometry">
            <mxPoint x="1342.96" y="579.01" as="sourcePoint" />
            <mxPoint x="1310" y="360" as="targetPoint" />
          </mxGeometry>
        </mxCell>
        <mxCell id="jcQPPuOPFq5n-dl-Zgb4-54" value="Sheet for Data collection" style="rounded=0;whiteSpace=wrap;html=1;" parent="1" vertex="1">
          <mxGeometry x="1620" y="170" width="120" height="50" as="geometry" />
        </mxCell>
        <mxCell id="jcQPPuOPFq5n-dl-Zgb4-56" value="" style="endArrow=classic;html=1;rounded=0;entryX=0;entryY=0.5;entryDx=0;entryDy=0;exitX=1;exitY=0.25;exitDx=0;exitDy=0;" parent="1" target="jcQPPuOPFq5n-dl-Zgb4-54" edge="1" source="3KIOxPF4NHvI4WSVQsfi-25">
          <mxGeometry width="50" height="50" relative="1" as="geometry">
            <mxPoint x="1250" y="403" as="sourcePoint" />
            <mxPoint x="1470" y="510" as="targetPoint" />
          </mxGeometry>
        </mxCell>
        <mxCell id="jcQPPuOPFq5n-dl-Zgb4-61" value="" style="endArrow=classic;html=1;rounded=0;exitX=0.75;exitY=1;exitDx=0;exitDy=0;entryX=0;entryY=0.25;entryDx=0;entryDy=0;" parent="1" source="3KIOxPF4NHvI4WSVQsfi-12" target="3KIOxPF4NHvI4WSVQsfi-25" edge="1">
          <mxGeometry width="50" height="50" relative="1" as="geometry">
            <mxPoint x="866.25" y="140" as="sourcePoint" />
            <mxPoint x="1130" y="403" as="targetPoint" />
          </mxGeometry>
        </mxCell>
        <mxCell id="jcQPPuOPFq5n-dl-Zgb4-62" value="" style="endArrow=classic;html=1;rounded=0;exitX=1;exitY=0.75;exitDx=0;exitDy=0;entryX=0;entryY=0.75;entryDx=0;entryDy=0;" parent="1" source="3KIOxPF4NHvI4WSVQsfi-13" target="3KIOxPF4NHvI4WSVQsfi-25" edge="1">
          <mxGeometry width="50" height="50" relative="1" as="geometry">
            <mxPoint x="850" y="200" as="sourcePoint" />
            <mxPoint x="1130" y="418" as="targetPoint" />
          </mxGeometry>
        </mxCell>
        <mxCell id="jcQPPuOPFq5n-dl-Zgb4-63" value="" style="endArrow=classic;html=1;rounded=0;exitX=1;exitY=0;exitDx=0;exitDy=0;entryX=0;entryY=0.5;entryDx=0;entryDy=0;" parent="1" source="3KIOxPF4NHvI4WSVQsfi-8" target="3KIOxPF4NHvI4WSVQsfi-13" edge="1">
          <mxGeometry width="50" height="50" relative="1" as="geometry">
            <mxPoint x="520.04" y="320" as="sourcePoint" />
            <mxPoint x="730" y="200" as="targetPoint" />
          </mxGeometry>
        </mxCell>
        <mxCell id="jcQPPuOPFq5n-dl-Zgb4-64" value="" style="endArrow=classic;html=1;rounded=0;exitX=0.625;exitY=0.05;exitDx=0;exitDy=0;exitPerimeter=0;entryX=0;entryY=0.5;entryDx=0;entryDy=0;" parent="1" source="3KIOxPF4NHvI4WSVQsfi-8" target="3KIOxPF4NHvI4WSVQsfi-12" edge="1">
          <mxGeometry width="50" height="50" relative="1" as="geometry">
            <mxPoint x="494" y="314" as="sourcePoint" />
            <mxPoint x="780" y="125" as="targetPoint" />
          </mxGeometry>
        </mxCell>
        <mxCell id="jcQPPuOPFq5n-dl-Zgb4-66" value="Decide Correct time for Data Collection" style="rounded=0;whiteSpace=wrap;html=1;" parent="1" vertex="1">
          <mxGeometry x="1600" y="70" width="120" height="60" as="geometry" />
        </mxCell>
        <mxCell id="jcQPPuOPFq5n-dl-Zgb4-67" value="" style="endArrow=classic;html=1;rounded=0;entryX=0;entryY=0;entryDx=0;entryDy=0;exitX=0.983;exitY=0.663;exitDx=0;exitDy=0;exitPerimeter=0;" parent="1" source="3KIOxPF4NHvI4WSVQsfi-11" target="jcQPPuOPFq5n-dl-Zgb4-66" edge="1">
          <mxGeometry width="50" height="50" relative="1" as="geometry">
            <mxPoint x="1182.04" y="301.03999999999996" as="sourcePoint" />
            <mxPoint x="1860" y="600" as="targetPoint" />
          </mxGeometry>
        </mxCell>
        <mxCell id="jcQPPuOPFq5n-dl-Zgb4-68" value="" style="endArrow=classic;html=1;rounded=0;entryX=0;entryY=0.5;entryDx=0;entryDy=0;exitX=1;exitY=0.5;exitDx=0;exitDy=0;" parent="1" source="3KIOxPF4NHvI4WSVQsfi-12" target="jcQPPuOPFq5n-dl-Zgb4-66" edge="1">
          <mxGeometry width="50" height="50" relative="1" as="geometry">
            <mxPoint x="895" y="125" as="sourcePoint" />
            <mxPoint x="1490" y="480" as="targetPoint" />
          </mxGeometry>
        </mxCell>
        <mxCell id="jcQPPuOPFq5n-dl-Zgb4-69" value="Collect Data" style="rounded=0;whiteSpace=wrap;html=1;" parent="1" vertex="1">
          <mxGeometry x="1840" y="130" width="120" height="40" as="geometry" />
        </mxCell>
        <mxCell id="jcQPPuOPFq5n-dl-Zgb4-70" value="" style="endArrow=classic;html=1;rounded=0;exitX=1;exitY=0.5;exitDx=0;exitDy=0;" parent="1" source="jcQPPuOPFq5n-dl-Zgb4-54" target="jcQPPuOPFq5n-dl-Zgb4-69" edge="1">
          <mxGeometry width="50" height="50" relative="1" as="geometry">
            <mxPoint x="1810" y="240" as="sourcePoint" />
            <mxPoint x="1860" y="190" as="targetPoint" />
          </mxGeometry>
        </mxCell>
        <mxCell id="jcQPPuOPFq5n-dl-Zgb4-71" value="" style="endArrow=classic;html=1;rounded=0;exitX=1;exitY=0.5;exitDx=0;exitDy=0;entryX=-0.05;entryY=0.15;entryDx=0;entryDy=0;entryPerimeter=0;" parent="1" source="jcQPPuOPFq5n-dl-Zgb4-66" target="jcQPPuOPFq5n-dl-Zgb4-69" edge="1">
          <mxGeometry width="50" height="50" relative="1" as="geometry">
            <mxPoint x="1740" y="120" as="sourcePoint" />
            <mxPoint x="1790" y="70" as="targetPoint" />
          </mxGeometry>
        </mxCell>
        <mxCell id="jcQPPuOPFq5n-dl-Zgb4-72" value="Digitalize Data" style="rounded=0;whiteSpace=wrap;html=1;" parent="1" vertex="1">
          <mxGeometry x="2010" y="130" width="120" height="40" as="geometry" />
        </mxCell>
        <mxCell id="jcQPPuOPFq5n-dl-Zgb4-73" value="" style="endArrow=classic;html=1;rounded=0;exitX=1;exitY=0.5;exitDx=0;exitDy=0;entryX=0;entryY=0.5;entryDx=0;entryDy=0;" parent="1" source="jcQPPuOPFq5n-dl-Zgb4-69" target="jcQPPuOPFq5n-dl-Zgb4-72" edge="1">
          <mxGeometry width="50" height="50" relative="1" as="geometry">
            <mxPoint x="2000" y="280" as="sourcePoint" />
            <mxPoint x="2050" y="230" as="targetPoint" />
          </mxGeometry>
        </mxCell>
        <mxCell id="jcQPPuOPFq5n-dl-Zgb4-74" value="Histogramm, qq Plot, Chi Sqare" style="rounded=0;whiteSpace=wrap;html=1;" parent="1" vertex="1">
          <mxGeometry x="2110" y="235" width="120" height="60" as="geometry" />
        </mxCell>
        <mxCell id="jcQPPuOPFq5n-dl-Zgb4-75" value="" style="endArrow=classic;html=1;rounded=0;exitX=0.433;exitY=1;exitDx=0;exitDy=0;exitPerimeter=0;entryX=0.5;entryY=0;entryDx=0;entryDy=0;" parent="1" source="jcQPPuOPFq5n-dl-Zgb4-72" target="jcQPPuOPFq5n-dl-Zgb4-74" edge="1">
          <mxGeometry width="50" height="50" relative="1" as="geometry">
            <mxPoint x="2120" y="290" as="sourcePoint" />
            <mxPoint x="2170" y="240" as="targetPoint" />
          </mxGeometry>
        </mxCell>
        <mxCell id="jcQPPuOPFq5n-dl-Zgb4-76" value="" style="endArrow=classic;html=1;rounded=0;exitX=1;exitY=0.5;exitDx=0;exitDy=0;entryX=0;entryY=0.5;entryDx=0;entryDy=0;" parent="1" source="3KIOxPF4NHvI4WSVQsfi-26" target="jcQPPuOPFq5n-dl-Zgb4-74" edge="1">
          <mxGeometry width="50" height="50" relative="1" as="geometry">
            <mxPoint x="1850" y="307.98000000000013" as="sourcePoint" />
            <mxPoint x="1930" y="330" as="targetPoint" />
          </mxGeometry>
        </mxCell>
        <mxCell id="jcQPPuOPFq5n-dl-Zgb4-77" value="Milestone 4" style="ellipse;whiteSpace=wrap;html=1;" parent="1" vertex="1">
          <mxGeometry x="2470" y="202.5" width="120" height="80" as="geometry" />
        </mxCell>
        <mxCell id="jcQPPuOPFq5n-dl-Zgb4-78" value="" style="endArrow=classic;html=1;rounded=0;exitX=1;exitY=0.5;exitDx=0;exitDy=0;entryX=0;entryY=0.5;entryDx=0;entryDy=0;" parent="1" source="jcQPPuOPFq5n-dl-Zgb4-74" target="jcQPPuOPFq5n-dl-Zgb4-82" edge="1">
          <mxGeometry width="50" height="50" relative="1" as="geometry">
            <mxPoint x="2260" y="360" as="sourcePoint" />
            <mxPoint x="2310" y="310" as="targetPoint" />
          </mxGeometry>
        </mxCell>
        <mxCell id="jcQPPuOPFq5n-dl-Zgb4-79" value="Document Results 4" style="rounded=0;whiteSpace=wrap;html=1;" parent="1" vertex="1">
          <mxGeometry x="2480" y="40" width="120" height="40" as="geometry" />
        </mxCell>
        <mxCell id="jcQPPuOPFq5n-dl-Zgb4-81" value="" style="endArrow=classic;html=1;rounded=0;exitX=0.5;exitY=0;exitDx=0;exitDy=0;entryX=0.567;entryY=1.025;entryDx=0;entryDy=0;entryPerimeter=0;" parent="1" source="jcQPPuOPFq5n-dl-Zgb4-77" target="jcQPPuOPFq5n-dl-Zgb4-79" edge="1">
          <mxGeometry width="50" height="50" relative="1" as="geometry">
            <mxPoint x="2270" y="320" as="sourcePoint" />
            <mxPoint x="2320" y="270" as="targetPoint" />
          </mxGeometry>
        </mxCell>
        <mxCell id="jcQPPuOPFq5n-dl-Zgb4-82" value="Prepare Presentation" style="rounded=0;whiteSpace=wrap;html=1;" parent="1" vertex="1">
          <mxGeometry x="2280" y="230" width="130" height="47" as="geometry" />
        </mxCell>
        <mxCell id="jcQPPuOPFq5n-dl-Zgb4-83" value="" style="endArrow=classic;html=1;rounded=0;exitX=1;exitY=0.5;exitDx=0;exitDy=0;entryX=0;entryY=0.5;entryDx=0;entryDy=0;" parent="1" source="jcQPPuOPFq5n-dl-Zgb4-82" target="jcQPPuOPFq5n-dl-Zgb4-77" edge="1">
          <mxGeometry width="50" height="50" relative="1" as="geometry">
            <mxPoint x="2580" y="290" as="sourcePoint" />
            <mxPoint x="2630" y="240" as="targetPoint" />
          </mxGeometry>
        </mxCell>
        <mxCell id="jcQPPuOPFq5n-dl-Zgb4-86" value="Decide Events" style="rounded=0;whiteSpace=wrap;html=1;" parent="1" vertex="1">
          <mxGeometry x="2170" y="575" width="110" height="40" as="geometry" />
        </mxCell>
        <mxCell id="jcQPPuOPFq5n-dl-Zgb4-87" value="Model Current Node" style="rounded=0;whiteSpace=wrap;html=1;" parent="1" vertex="1">
          <mxGeometry x="2600" y="400" width="120" height="40" as="geometry" />
        </mxCell>
        <mxCell id="jcQPPuOPFq5n-dl-Zgb4-88" value="Model Roundabout" style="rounded=0;whiteSpace=wrap;html=1;" parent="1" vertex="1">
          <mxGeometry x="2620" y="325" width="120" height="40" as="geometry" />
        </mxCell>
        <mxCell id="jcQPPuOPFq5n-dl-Zgb4-89" value="Model 2 Way Street Variation" style="rounded=0;whiteSpace=wrap;html=1;" parent="1" vertex="1">
          <mxGeometry x="2580" y="475" width="120" height="50" as="geometry" />
        </mxCell>
        <mxCell id="jcQPPuOPFq5n-dl-Zgb4-90" value="" style="endArrow=classic;html=1;rounded=0;entryX=0.5;entryY=0;entryDx=0;entryDy=0;exitX=1;exitY=0.5;exitDx=0;exitDy=0;" parent="1" source="3KIOxPF4NHvI4WSVQsfi-27" target="jcQPPuOPFq5n-dl-Zgb4-86" edge="1">
          <mxGeometry width="50" height="50" relative="1" as="geometry">
            <mxPoint x="2060" y="530" as="sourcePoint" />
            <mxPoint x="2770" y="330" as="targetPoint" />
          </mxGeometry>
        </mxCell>
        <mxCell id="jcQPPuOPFq5n-dl-Zgb4-91" value="" style="endArrow=classic;html=1;rounded=0;exitX=1;exitY=0.5;exitDx=0;exitDy=0;entryX=0.5;entryY=1;entryDx=0;entryDy=0;" parent="1" source="3KIOxPF4NHvI4WSVQsfi-28" target="jcQPPuOPFq5n-dl-Zgb4-86" edge="1">
          <mxGeometry width="50" height="50" relative="1" as="geometry">
            <mxPoint x="2060" y="655" as="sourcePoint" />
            <mxPoint x="2630" y="470" as="targetPoint" />
          </mxGeometry>
        </mxCell>
        <mxCell id="jcQPPuOPFq5n-dl-Zgb4-92" value="" style="endArrow=classic;html=1;rounded=0;exitX=1;exitY=0.5;exitDx=0;exitDy=0;entryX=0;entryY=0.25;entryDx=0;entryDy=0;" parent="1" source="jcQPPuOPFq5n-dl-Zgb4-44" target="jcQPPuOPFq5n-dl-Zgb4-87" edge="1">
          <mxGeometry width="50" height="50" relative="1" as="geometry">
            <mxPoint x="1890" y="470" as="sourcePoint" />
            <mxPoint x="2650" y="290" as="targetPoint" />
          </mxGeometry>
        </mxCell>
        <mxCell id="jcQPPuOPFq5n-dl-Zgb4-93" value="" style="endArrow=classic;html=1;rounded=0;exitX=1;exitY=0.5;exitDx=0;exitDy=0;entryX=0;entryY=0.5;entryDx=0;entryDy=0;" parent="1" source="jcQPPuOPFq5n-dl-Zgb4-44" target="jcQPPuOPFq5n-dl-Zgb4-88" edge="1">
          <mxGeometry width="50" height="50" relative="1" as="geometry">
            <mxPoint x="1820" y="480" as="sourcePoint" />
            <mxPoint x="2610" y="270" as="targetPoint" />
          </mxGeometry>
        </mxCell>
        <mxCell id="jcQPPuOPFq5n-dl-Zgb4-94" value="" style="endArrow=classic;html=1;rounded=0;exitX=1;exitY=0.5;exitDx=0;exitDy=0;" parent="1" source="jcQPPuOPFq5n-dl-Zgb4-44" target="jcQPPuOPFq5n-dl-Zgb4-89" edge="1">
          <mxGeometry width="50" height="50" relative="1" as="geometry">
            <mxPoint x="2170" y="530" as="sourcePoint" />
            <mxPoint x="2220" y="480" as="targetPoint" />
          </mxGeometry>
        </mxCell>
        <mxCell id="jcQPPuOPFq5n-dl-Zgb4-95" value="" style="endArrow=classic;html=1;rounded=0;exitX=1;exitY=0.5;exitDx=0;exitDy=0;" parent="1" source="jcQPPuOPFq5n-dl-Zgb4-86" edge="1">
          <mxGeometry width="50" height="50" relative="1" as="geometry">
            <mxPoint x="2450" y="590" as="sourcePoint" />
            <mxPoint x="2580" y="500" as="targetPoint" />
          </mxGeometry>
        </mxCell>
        <mxCell id="jcQPPuOPFq5n-dl-Zgb4-96" value="" style="endArrow=classic;html=1;rounded=0;entryX=0;entryY=0.5;entryDx=0;entryDy=0;" parent="1" target="jcQPPuOPFq5n-dl-Zgb4-87" edge="1">
          <mxGeometry width="50" height="50" relative="1" as="geometry">
            <mxPoint x="2280" y="600" as="sourcePoint" />
            <mxPoint x="2430" y="620" as="targetPoint" />
          </mxGeometry>
        </mxCell>
        <mxCell id="jcQPPuOPFq5n-dl-Zgb4-97" value="" style="endArrow=classic;html=1;rounded=0;exitX=1;exitY=0.25;exitDx=0;exitDy=0;entryX=0;entryY=0.75;entryDx=0;entryDy=0;" parent="1" source="jcQPPuOPFq5n-dl-Zgb4-86" target="jcQPPuOPFq5n-dl-Zgb4-88" edge="1">
          <mxGeometry width="50" height="50" relative="1" as="geometry">
            <mxPoint x="2410" y="670" as="sourcePoint" />
            <mxPoint x="2460" y="620" as="targetPoint" />
          </mxGeometry>
        </mxCell>
        <mxCell id="jcQPPuOPFq5n-dl-Zgb4-98" value="Milestone 5" style="ellipse;whiteSpace=wrap;html=1;" parent="1" vertex="1">
          <mxGeometry x="2910" y="150" width="120" height="80" as="geometry" />
        </mxCell>
        <mxCell id="jcQPPuOPFq5n-dl-Zgb4-99" value="Insert Data" style="rounded=0;whiteSpace=wrap;html=1;" parent="1" vertex="1">
          <mxGeometry x="2820" y="360" width="130" height="40" as="geometry" />
        </mxCell>
        <mxCell id="jcQPPuOPFq5n-dl-Zgb4-100" value="" style="endArrow=classic;html=1;rounded=0;exitX=1;exitY=0.5;exitDx=0;exitDy=0;entryX=0.355;entryY=1.071;entryDx=0;entryDy=0;entryPerimeter=0;" parent="1" source="jcQPPuOPFq5n-dl-Zgb4-89" target="jcQPPuOPFq5n-dl-Zgb4-99" edge="1">
          <mxGeometry width="50" height="50" relative="1" as="geometry">
            <mxPoint x="2690" y="430" as="sourcePoint" />
            <mxPoint x="2740" y="380" as="targetPoint" />
          </mxGeometry>
        </mxCell>
        <mxCell id="jcQPPuOPFq5n-dl-Zgb4-101" value="" style="endArrow=classic;html=1;rounded=0;exitX=1;exitY=0.5;exitDx=0;exitDy=0;entryX=0.5;entryY=0;entryDx=0;entryDy=0;" parent="1" source="jcQPPuOPFq5n-dl-Zgb4-77" target="jcQPPuOPFq5n-dl-Zgb4-99" edge="1">
          <mxGeometry width="50" height="50" relative="1" as="geometry">
            <mxPoint x="2710" y="260" as="sourcePoint" />
            <mxPoint x="2760" y="210" as="targetPoint" />
          </mxGeometry>
        </mxCell>
        <mxCell id="jcQPPuOPFq5n-dl-Zgb4-102" value="" style="endArrow=classic;html=1;rounded=0;exitX=1;exitY=0.5;exitDx=0;exitDy=0;entryX=0;entryY=0.5;entryDx=0;entryDy=0;" parent="1" source="jcQPPuOPFq5n-dl-Zgb4-88" target="jcQPPuOPFq5n-dl-Zgb4-99" edge="1">
          <mxGeometry width="50" height="50" relative="1" as="geometry">
            <mxPoint x="2850" y="580" as="sourcePoint" />
            <mxPoint x="2900" y="530" as="targetPoint" />
          </mxGeometry>
        </mxCell>
        <mxCell id="jcQPPuOPFq5n-dl-Zgb4-103" value="" style="endArrow=classic;html=1;rounded=0;exitX=1;exitY=0.5;exitDx=0;exitDy=0;entryX=0;entryY=0.75;entryDx=0;entryDy=0;" parent="1" source="jcQPPuOPFq5n-dl-Zgb4-87" target="jcQPPuOPFq5n-dl-Zgb4-99" edge="1">
          <mxGeometry width="50" height="50" relative="1" as="geometry">
            <mxPoint x="2820" y="540" as="sourcePoint" />
            <mxPoint x="2870" y="490" as="targetPoint" />
          </mxGeometry>
        </mxCell>
        <mxCell id="jcQPPuOPFq5n-dl-Zgb4-104" value="" style="endArrow=classic;html=1;rounded=0;exitX=0.75;exitY=0;exitDx=0;exitDy=0;entryX=0.5;entryY=1;entryDx=0;entryDy=0;" parent="1" source="jcQPPuOPFq5n-dl-Zgb4-99" target="jcQPPuOPFq5n-dl-Zgb4-113" edge="1">
          <mxGeometry width="50" height="50" relative="1" as="geometry">
            <mxPoint x="2970" y="330" as="sourcePoint" />
            <mxPoint x="3020" y="280" as="targetPoint" />
          </mxGeometry>
        </mxCell>
        <mxCell id="jcQPPuOPFq5n-dl-Zgb4-105" value="Document Results 5" style="rounded=0;whiteSpace=wrap;html=1;" parent="1" vertex="1">
          <mxGeometry x="2923" y="30" width="117" height="40" as="geometry" />
        </mxCell>
        <mxCell id="jcQPPuOPFq5n-dl-Zgb4-106" value="" style="endArrow=classic;html=1;rounded=0;exitX=0.5;exitY=0;exitDx=0;exitDy=0;" parent="1" source="jcQPPuOPFq5n-dl-Zgb4-98" target="jcQPPuOPFq5n-dl-Zgb4-105" edge="1">
          <mxGeometry width="50" height="50" relative="1" as="geometry">
            <mxPoint x="2690" y="300" as="sourcePoint" />
            <mxPoint x="2740" y="250" as="targetPoint" />
          </mxGeometry>
        </mxCell>
        <mxCell id="jcQPPuOPFq5n-dl-Zgb4-107" value="" style="endArrow=classic;html=1;rounded=0;exitX=1;exitY=0.75;exitDx=0;exitDy=0;entryX=0;entryY=0.5;entryDx=0;entryDy=0;" parent="1" source="3KIOxPF4NHvI4WSVQsfi-9" target="3KIOxPF4NHvI4WSVQsfi-10" edge="1">
          <mxGeometry width="50" height="50" relative="1" as="geometry">
            <mxPoint x="790" y="40" as="sourcePoint" />
            <mxPoint x="1010" y="45" as="targetPoint" />
          </mxGeometry>
        </mxCell>
        <mxCell id="jcQPPuOPFq5n-dl-Zgb4-108" value="" style="endArrow=classic;html=1;rounded=0;exitX=1;exitY=0.5;exitDx=0;exitDy=0;entryX=0;entryY=0.5;entryDx=0;entryDy=0;" parent="1" source="3KIOxPF4NHvI4WSVQsfi-10" target="jcQPPuOPFq5n-dl-Zgb4-42" edge="1">
          <mxGeometry width="50" height="50" relative="1" as="geometry">
            <mxPoint x="1130" y="45" as="sourcePoint" />
            <mxPoint x="1280" y="30" as="targetPoint" />
          </mxGeometry>
        </mxCell>
        <mxCell id="jcQPPuOPFq5n-dl-Zgb4-109" value="" style="endArrow=classic;html=1;rounded=0;exitX=1;exitY=0.25;exitDx=0;exitDy=0;entryX=0;entryY=0.5;entryDx=0;entryDy=0;" parent="1" source="jcQPPuOPFq5n-dl-Zgb4-42" target="jcQPPuOPFq5n-dl-Zgb4-79" edge="1">
          <mxGeometry width="50" height="50" relative="1" as="geometry">
            <mxPoint x="1790" y="60" as="sourcePoint" />
            <mxPoint x="1840" y="10" as="targetPoint" />
          </mxGeometry>
        </mxCell>
        <mxCell id="jcQPPuOPFq5n-dl-Zgb4-110" value="" style="endArrow=classic;html=1;rounded=0;exitX=1;exitY=0.5;exitDx=0;exitDy=0;entryX=0;entryY=0.5;entryDx=0;entryDy=0;" parent="1" source="jcQPPuOPFq5n-dl-Zgb4-79" target="jcQPPuOPFq5n-dl-Zgb4-105" edge="1">
          <mxGeometry width="50" height="50" relative="1" as="geometry">
            <mxPoint x="2740" y="110" as="sourcePoint" />
            <mxPoint x="2790" y="60" as="targetPoint" />
          </mxGeometry>
        </mxCell>
        <mxCell id="jcQPPuOPFq5n-dl-Zgb4-111" value="Write and Run Validation Experiments" style="rounded=0;whiteSpace=wrap;html=1;" parent="1" vertex="1">
          <mxGeometry x="3140" y="260" width="120" height="60" as="geometry" />
        </mxCell>
        <mxCell id="jcQPPuOPFq5n-dl-Zgb4-112" value="" style="endArrow=classic;html=1;rounded=0;exitX=1;exitY=0.5;exitDx=0;exitDy=0;entryX=0;entryY=0;entryDx=0;entryDy=0;" parent="1" source="jcQPPuOPFq5n-dl-Zgb4-98" target="jcQPPuOPFq5n-dl-Zgb4-111" edge="1">
          <mxGeometry width="50" height="50" relative="1" as="geometry">
            <mxPoint x="3100" y="210" as="sourcePoint" />
            <mxPoint x="3150" y="160" as="targetPoint" />
          </mxGeometry>
        </mxCell>
        <mxCell id="jcQPPuOPFq5n-dl-Zgb4-113" value="Prepare Presentation" style="rounded=0;whiteSpace=wrap;html=1;" parent="1" vertex="1">
          <mxGeometry x="2900" y="285" width="120" height="40" as="geometry" />
        </mxCell>
        <mxCell id="jcQPPuOPFq5n-dl-Zgb4-114" value="" style="endArrow=classic;html=1;rounded=0;exitX=0.5;exitY=0;exitDx=0;exitDy=0;entryX=0.5;entryY=1;entryDx=0;entryDy=0;" parent="1" source="jcQPPuOPFq5n-dl-Zgb4-113" target="jcQPPuOPFq5n-dl-Zgb4-98" edge="1">
          <mxGeometry width="50" height="50" relative="1" as="geometry">
            <mxPoint x="3020" y="400" as="sourcePoint" />
            <mxPoint x="3070" y="350" as="targetPoint" />
          </mxGeometry>
        </mxCell>
        <mxCell id="jcQPPuOPFq5n-dl-Zgb4-115" value="Milestone 6" style="ellipse;whiteSpace=wrap;html=1;" parent="1" vertex="1">
          <mxGeometry x="3330" y="185" width="120" height="80" as="geometry" />
        </mxCell>
        <mxCell id="jcQPPuOPFq5n-dl-Zgb4-116" value="" style="endArrow=classic;html=1;rounded=0;exitX=1;exitY=0.5;exitDx=0;exitDy=0;entryX=0.027;entryY=0.688;entryDx=0;entryDy=0;entryPerimeter=0;" parent="1" source="jcQPPuOPFq5n-dl-Zgb4-111" target="jcQPPuOPFq5n-dl-Zgb4-115" edge="1">
          <mxGeometry width="50" height="50" relative="1" as="geometry">
            <mxPoint x="3290" y="370" as="sourcePoint" />
            <mxPoint x="3340" y="320" as="targetPoint" />
          </mxGeometry>
        </mxCell>
        <mxCell id="jcQPPuOPFq5n-dl-Zgb4-117" value="Document Results 6" style="rounded=0;whiteSpace=wrap;html=1;" parent="1" vertex="1">
          <mxGeometry x="3320" y="40" width="120" height="40" as="geometry" />
        </mxCell>
        <mxCell id="jcQPPuOPFq5n-dl-Zgb4-118" value="" style="endArrow=classic;html=1;rounded=0;exitX=1;exitY=0.5;exitDx=0;exitDy=0;entryX=0;entryY=0.5;entryDx=0;entryDy=0;" parent="1" source="jcQPPuOPFq5n-dl-Zgb4-105" target="jcQPPuOPFq5n-dl-Zgb4-117" edge="1">
          <mxGeometry width="50" height="50" relative="1" as="geometry">
            <mxPoint x="3180" y="100" as="sourcePoint" />
            <mxPoint x="3230" y="50" as="targetPoint" />
          </mxGeometry>
        </mxCell>
        <mxCell id="jcQPPuOPFq5n-dl-Zgb4-119" value="" style="endArrow=classic;html=1;rounded=0;entryX=0.5;entryY=1;entryDx=0;entryDy=0;exitX=0.5;exitY=0;exitDx=0;exitDy=0;" parent="1" source="jcQPPuOPFq5n-dl-Zgb4-115" target="jcQPPuOPFq5n-dl-Zgb4-117" edge="1">
          <mxGeometry width="50" height="50" relative="1" as="geometry">
            <mxPoint x="3380" y="180" as="sourcePoint" />
            <mxPoint x="3290" y="150" as="targetPoint" />
          </mxGeometry>
        </mxCell>
        <mxCell id="jcQPPuOPFq5n-dl-Zgb4-121" value="Final Decision on Experiments" style="rounded=0;whiteSpace=wrap;html=1;" parent="1" vertex="1">
          <mxGeometry x="2790" y="590" width="120" height="60" as="geometry" />
        </mxCell>
        <mxCell id="jcQPPuOPFq5n-dl-Zgb4-122" value="" style="endArrow=classic;html=1;rounded=0;exitX=1;exitY=0.5;exitDx=0;exitDy=0;entryX=0;entryY=0.5;entryDx=0;entryDy=0;" parent="1" target="jcQPPuOPFq5n-dl-Zgb4-121" edge="1">
          <mxGeometry width="50" height="50" relative="1" as="geometry">
            <mxPoint x="1180" y="290" as="sourcePoint" />
            <mxPoint x="2530" y="610" as="targetPoint" />
          </mxGeometry>
        </mxCell>
        <mxCell id="jcQPPuOPFq5n-dl-Zgb4-123" value="Milestone 7" style="ellipse;whiteSpace=wrap;html=1;" parent="1" vertex="1">
          <mxGeometry x="3590" y="293" width="120" height="80" as="geometry" />
        </mxCell>
        <mxCell id="jcQPPuOPFq5n-dl-Zgb4-124" value="Write and Run Experiment 4" style="rounded=0;whiteSpace=wrap;html=1;" parent="1" vertex="1">
          <mxGeometry x="3190" y="600" width="120" height="60" as="geometry" />
        </mxCell>
        <mxCell id="jcQPPuOPFq5n-dl-Zgb4-125" value="Write and Run Experiment 1" style="rounded=0;whiteSpace=wrap;html=1;" parent="1" vertex="1">
          <mxGeometry x="3210" y="685" width="120" height="60" as="geometry" />
        </mxCell>
        <mxCell id="jcQPPuOPFq5n-dl-Zgb4-126" value="Write and Run Experiment 3" style="rounded=0;whiteSpace=wrap;html=1;" parent="1" vertex="1">
          <mxGeometry x="3200" y="520" width="120" height="60" as="geometry" />
        </mxCell>
        <mxCell id="jcQPPuOPFq5n-dl-Zgb4-127" value="Write and Run Experiment 2" style="rounded=0;whiteSpace=wrap;html=1;" parent="1" vertex="1">
          <mxGeometry x="3210" y="442.5" width="120" height="60" as="geometry" />
        </mxCell>
        <mxCell id="jcQPPuOPFq5n-dl-Zgb4-128" value="Prepare Presentation" style="rounded=0;whiteSpace=wrap;html=1;" parent="1" vertex="1">
          <mxGeometry x="3590" y="420" width="120" height="60" as="geometry" />
        </mxCell>
        <mxCell id="jcQPPuOPFq5n-dl-Zgb4-129" value="Analyze and Visualize" style="rounded=0;whiteSpace=wrap;html=1;" parent="1" vertex="1">
          <mxGeometry x="3470" y="530" width="140" height="60" as="geometry" />
        </mxCell>
        <mxCell id="jcQPPuOPFq5n-dl-Zgb4-130" value="" style="endArrow=classic;html=1;rounded=0;exitX=1;exitY=0.5;exitDx=0;exitDy=0;entryX=0;entryY=0.25;entryDx=0;entryDy=0;" parent="1" source="jcQPPuOPFq5n-dl-Zgb4-127" target="jcQPPuOPFq5n-dl-Zgb4-129" edge="1">
          <mxGeometry width="50" height="50" relative="1" as="geometry">
            <mxPoint x="3430" y="530" as="sourcePoint" />
            <mxPoint x="3480" y="480" as="targetPoint" />
          </mxGeometry>
        </mxCell>
        <mxCell id="jcQPPuOPFq5n-dl-Zgb4-131" value="" style="endArrow=classic;html=1;rounded=0;exitX=1;exitY=0.5;exitDx=0;exitDy=0;entryX=0;entryY=0.75;entryDx=0;entryDy=0;" parent="1" source="jcQPPuOPFq5n-dl-Zgb4-126" target="jcQPPuOPFq5n-dl-Zgb4-129" edge="1">
          <mxGeometry width="50" height="50" relative="1" as="geometry">
            <mxPoint x="3400" y="600" as="sourcePoint" />
            <mxPoint x="3450" y="550" as="targetPoint" />
          </mxGeometry>
        </mxCell>
        <mxCell id="jcQPPuOPFq5n-dl-Zgb4-132" value="" style="endArrow=classic;html=1;rounded=0;exitX=1;exitY=0.5;exitDx=0;exitDy=0;entryX=0;entryY=0.5;entryDx=0;entryDy=0;" parent="1" source="jcQPPuOPFq5n-dl-Zgb4-124" target="jcQPPuOPFq5n-dl-Zgb4-129" edge="1">
          <mxGeometry width="50" height="50" relative="1" as="geometry">
            <mxPoint x="3370" y="670" as="sourcePoint" />
            <mxPoint x="3420" y="620" as="targetPoint" />
          </mxGeometry>
        </mxCell>
        <mxCell id="jcQPPuOPFq5n-dl-Zgb4-133" value="" style="endArrow=classic;html=1;rounded=0;exitX=1;exitY=0.5;exitDx=0;exitDy=0;entryX=0.085;entryY=1.024;entryDx=0;entryDy=0;entryPerimeter=0;" parent="1" source="jcQPPuOPFq5n-dl-Zgb4-125" target="jcQPPuOPFq5n-dl-Zgb4-129" edge="1">
          <mxGeometry width="50" height="50" relative="1" as="geometry">
            <mxPoint x="3390" y="690" as="sourcePoint" />
            <mxPoint x="3440" y="640" as="targetPoint" />
          </mxGeometry>
        </mxCell>
        <mxCell id="jcQPPuOPFq5n-dl-Zgb4-134" value="" style="endArrow=classic;html=1;rounded=0;exitX=0.5;exitY=0;exitDx=0;exitDy=0;entryX=0.396;entryY=1.048;entryDx=0;entryDy=0;entryPerimeter=0;" parent="1" source="jcQPPuOPFq5n-dl-Zgb4-129" target="jcQPPuOPFq5n-dl-Zgb4-128" edge="1">
          <mxGeometry width="50" height="50" relative="1" as="geometry">
            <mxPoint x="3530" y="500" as="sourcePoint" />
            <mxPoint x="3580" y="450" as="targetPoint" />
          </mxGeometry>
        </mxCell>
        <mxCell id="jcQPPuOPFq5n-dl-Zgb4-135" value="" style="endArrow=classic;html=1;rounded=0;exitX=0.5;exitY=1;exitDx=0;exitDy=0;entryX=0.599;entryY=0;entryDx=0;entryDy=0;entryPerimeter=0;" parent="1" source="3KIOxPF4NHvI4WSVQsfi-29" target="jcQPPuOPFq5n-dl-Zgb4-121" edge="1">
          <mxGeometry width="50" height="50" relative="1" as="geometry">
            <mxPoint x="2887.5199999999995" y="499.28" as="sourcePoint" />
            <mxPoint x="3050" y="560" as="targetPoint" />
          </mxGeometry>
        </mxCell>
        <mxCell id="jcQPPuOPFq5n-dl-Zgb4-136" value="" style="endArrow=classic;html=1;rounded=0;exitX=1;exitY=0.5;exitDx=0;exitDy=0;entryX=0;entryY=0.75;entryDx=0;entryDy=0;" parent="1" source="jcQPPuOPFq5n-dl-Zgb4-121" target="jcQPPuOPFq5n-dl-Zgb4-125" edge="1">
          <mxGeometry width="50" height="50" relative="1" as="geometry">
            <mxPoint x="3050" y="580" as="sourcePoint" />
            <mxPoint x="3100" y="530" as="targetPoint" />
          </mxGeometry>
        </mxCell>
        <mxCell id="jcQPPuOPFq5n-dl-Zgb4-137" value="" style="endArrow=classic;html=1;rounded=0;exitX=1;exitY=0.5;exitDx=0;exitDy=0;entryX=0;entryY=0.75;entryDx=0;entryDy=0;" parent="1" source="jcQPPuOPFq5n-dl-Zgb4-121" target="jcQPPuOPFq5n-dl-Zgb4-124" edge="1">
          <mxGeometry width="50" height="50" relative="1" as="geometry">
            <mxPoint x="3060" y="600" as="sourcePoint" />
            <mxPoint x="3110" y="550" as="targetPoint" />
          </mxGeometry>
        </mxCell>
        <mxCell id="jcQPPuOPFq5n-dl-Zgb4-138" value="" style="endArrow=classic;html=1;rounded=0;exitX=1;exitY=0.5;exitDx=0;exitDy=0;entryX=0;entryY=0.75;entryDx=0;entryDy=0;" parent="1" source="jcQPPuOPFq5n-dl-Zgb4-121" target="jcQPPuOPFq5n-dl-Zgb4-126" edge="1">
          <mxGeometry width="50" height="50" relative="1" as="geometry">
            <mxPoint x="3080" y="600" as="sourcePoint" />
            <mxPoint x="3130" y="550" as="targetPoint" />
          </mxGeometry>
        </mxCell>
        <mxCell id="jcQPPuOPFq5n-dl-Zgb4-139" value="" style="endArrow=classic;html=1;rounded=0;exitX=1;exitY=0.25;exitDx=0;exitDy=0;entryX=0;entryY=0.75;entryDx=0;entryDy=0;" parent="1" source="jcQPPuOPFq5n-dl-Zgb4-121" target="jcQPPuOPFq5n-dl-Zgb4-127" edge="1">
          <mxGeometry width="50" height="50" relative="1" as="geometry">
            <mxPoint x="3030" y="580" as="sourcePoint" />
            <mxPoint x="3080" y="530" as="targetPoint" />
          </mxGeometry>
        </mxCell>
        <mxCell id="jcQPPuOPFq5n-dl-Zgb4-140" value="" style="endArrow=classic;html=1;rounded=0;exitX=0.98;exitY=0.75;exitDx=0;exitDy=0;exitPerimeter=0;" parent="1" source="jcQPPuOPFq5n-dl-Zgb4-98" target="jcQPPuOPFq5n-dl-Zgb4-127" edge="1">
          <mxGeometry width="50" height="50" relative="1" as="geometry">
            <mxPoint x="3110" y="450" as="sourcePoint" />
            <mxPoint x="3160" y="400" as="targetPoint" />
          </mxGeometry>
        </mxCell>
        <mxCell id="jcQPPuOPFq5n-dl-Zgb4-141" value="" style="endArrow=classic;html=1;rounded=0;exitX=1;exitY=1;exitDx=0;exitDy=0;entryX=0;entryY=0.5;entryDx=0;entryDy=0;" parent="1" source="jcQPPuOPFq5n-dl-Zgb4-98" target="jcQPPuOPFq5n-dl-Zgb4-125" edge="1">
          <mxGeometry width="50" height="50" relative="1" as="geometry">
            <mxPoint x="3050" y="450" as="sourcePoint" />
            <mxPoint x="3100" y="400" as="targetPoint" />
          </mxGeometry>
        </mxCell>
        <mxCell id="jcQPPuOPFq5n-dl-Zgb4-142" value="" style="endArrow=classic;html=1;rounded=0;entryX=0;entryY=0.5;entryDx=0;entryDy=0;exitX=0.718;exitY=1;exitDx=0;exitDy=0;exitPerimeter=0;" parent="1" source="jcQPPuOPFq5n-dl-Zgb4-98" target="jcQPPuOPFq5n-dl-Zgb4-126" edge="1">
          <mxGeometry width="50" height="50" relative="1" as="geometry">
            <mxPoint x="3010" y="250" as="sourcePoint" />
            <mxPoint x="3170" y="370" as="targetPoint" />
          </mxGeometry>
        </mxCell>
        <mxCell id="jcQPPuOPFq5n-dl-Zgb4-143" value="" style="endArrow=classic;html=1;rounded=0;entryX=0;entryY=0.25;entryDx=0;entryDy=0;exitX=0.944;exitY=0.857;exitDx=0;exitDy=0;exitPerimeter=0;" parent="1" source="jcQPPuOPFq5n-dl-Zgb4-98" target="jcQPPuOPFq5n-dl-Zgb4-124" edge="1">
          <mxGeometry width="50" height="50" relative="1" as="geometry">
            <mxPoint x="3010" y="530" as="sourcePoint" />
            <mxPoint x="3060" y="480" as="targetPoint" />
          </mxGeometry>
        </mxCell>
        <mxCell id="jcQPPuOPFq5n-dl-Zgb4-144" value="" style="endArrow=classic;html=1;rounded=0;exitX=0.5;exitY=0;exitDx=0;exitDy=0;entryX=0.587;entryY=0.98;entryDx=0;entryDy=0;entryPerimeter=0;" parent="1" source="jcQPPuOPFq5n-dl-Zgb4-128" target="jcQPPuOPFq5n-dl-Zgb4-123" edge="1">
          <mxGeometry width="50" height="50" relative="1" as="geometry">
            <mxPoint x="3850" y="560" as="sourcePoint" />
            <mxPoint x="3900" y="510" as="targetPoint" />
          </mxGeometry>
        </mxCell>
        <mxCell id="jcQPPuOPFq5n-dl-Zgb4-145" value="Document Results 7" style="rounded=0;whiteSpace=wrap;html=1;" parent="1" vertex="1">
          <mxGeometry x="3660" y="150" width="120" height="60" as="geometry" />
        </mxCell>
        <mxCell id="jcQPPuOPFq5n-dl-Zgb4-146" value="" style="endArrow=classic;html=1;rounded=0;exitX=0.5;exitY=0;exitDx=0;exitDy=0;entryX=0.5;entryY=1;entryDx=0;entryDy=0;" parent="1" source="jcQPPuOPFq5n-dl-Zgb4-123" target="jcQPPuOPFq5n-dl-Zgb4-145" edge="1">
          <mxGeometry width="50" height="50" relative="1" as="geometry">
            <mxPoint x="3690" y="300" as="sourcePoint" />
            <mxPoint x="3740" y="250" as="targetPoint" />
          </mxGeometry>
        </mxCell>
        <mxCell id="jcQPPuOPFq5n-dl-Zgb4-147" value="" style="endArrow=classic;html=1;rounded=0;exitX=1;exitY=0.5;exitDx=0;exitDy=0;entryX=0;entryY=0;entryDx=0;entryDy=0;" parent="1" source="jcQPPuOPFq5n-dl-Zgb4-117" target="jcQPPuOPFq5n-dl-Zgb4-145" edge="1">
          <mxGeometry width="50" height="50" relative="1" as="geometry">
            <mxPoint x="3570" y="110" as="sourcePoint" />
            <mxPoint x="3620" y="60" as="targetPoint" />
          </mxGeometry>
        </mxCell>
        <mxCell id="jcQPPuOPFq5n-dl-Zgb4-148" value="Final Version Documentation" style="rounded=0;whiteSpace=wrap;html=1;" parent="1" vertex="1">
          <mxGeometry x="3840" y="140" width="120" height="60" as="geometry" />
        </mxCell>
        <mxCell id="jcQPPuOPFq5n-dl-Zgb4-149" value="Print Documentation" style="rounded=0;whiteSpace=wrap;html=1;" parent="1" vertex="1">
          <mxGeometry x="3880" y="245" width="120" height="60" as="geometry" />
        </mxCell>
        <mxCell id="jcQPPuOPFq5n-dl-Zgb4-150" value="Prepare Final Presentation" style="rounded=0;whiteSpace=wrap;html=1;" parent="1" vertex="1">
          <mxGeometry x="3960" y="340" width="120" height="60" as="geometry" />
        </mxCell>
        <mxCell id="jcQPPuOPFq5n-dl-Zgb4-151" value="Milestone 8" style="ellipse;whiteSpace=wrap;html=1;" parent="1" vertex="1">
          <mxGeometry x="4140" y="430" width="120" height="80" as="geometry" />
        </mxCell>
        <mxCell id="jcQPPuOPFq5n-dl-Zgb4-152" value="" style="endArrow=classic;html=1;rounded=0;exitX=1;exitY=0.75;exitDx=0;exitDy=0;entryX=0;entryY=0.5;entryDx=0;entryDy=0;" parent="1" source="jcQPPuOPFq5n-dl-Zgb4-145" target="jcQPPuOPFq5n-dl-Zgb4-148" edge="1">
          <mxGeometry width="50" height="50" relative="1" as="geometry">
            <mxPoint x="3790" y="310" as="sourcePoint" />
            <mxPoint x="3840" y="260" as="targetPoint" />
          </mxGeometry>
        </mxCell>
        <mxCell id="jcQPPuOPFq5n-dl-Zgb4-153" value="" style="endArrow=classic;html=1;rounded=0;exitX=0.5;exitY=1;exitDx=0;exitDy=0;entryX=0.25;entryY=0;entryDx=0;entryDy=0;" parent="1" source="jcQPPuOPFq5n-dl-Zgb4-148" target="jcQPPuOPFq5n-dl-Zgb4-149" edge="1">
          <mxGeometry width="50" height="50" relative="1" as="geometry">
            <mxPoint x="3850" y="470" as="sourcePoint" />
            <mxPoint x="3900" y="420" as="targetPoint" />
          </mxGeometry>
        </mxCell>
        <mxCell id="jcQPPuOPFq5n-dl-Zgb4-154" value="" style="endArrow=classic;html=1;rounded=0;exitX=0.5;exitY=1;exitDx=0;exitDy=0;entryX=0;entryY=0;entryDx=0;entryDy=0;" parent="1" source="jcQPPuOPFq5n-dl-Zgb4-149" target="jcQPPuOPFq5n-dl-Zgb4-150" edge="1">
          <mxGeometry width="50" height="50" relative="1" as="geometry">
            <mxPoint x="3840" y="550" as="sourcePoint" />
            <mxPoint x="3890" y="500" as="targetPoint" />
          </mxGeometry>
        </mxCell>
        <mxCell id="jcQPPuOPFq5n-dl-Zgb4-155" value="" style="endArrow=classic;html=1;rounded=0;exitX=0.873;exitY=1.048;exitDx=0;exitDy=0;exitPerimeter=0;entryX=0.063;entryY=0.179;entryDx=0;entryDy=0;entryPerimeter=0;" parent="1" source="jcQPPuOPFq5n-dl-Zgb4-150" target="jcQPPuOPFq5n-dl-Zgb4-151" edge="1">
          <mxGeometry width="50" height="50" relative="1" as="geometry">
            <mxPoint x="4060" y="540" as="sourcePoint" />
            <mxPoint x="4110" y="490" as="targetPoint" />
          </mxGeometry>
        </mxCell>
        <mxCell id="3KIOxPF4NHvI4WSVQsfi-1" value="Write Working Hours" style="rounded=0;whiteSpace=wrap;html=1;" vertex="1" parent="1">
          <mxGeometry x="250" y="422.5" width="120" height="40" as="geometry" />
        </mxCell>
        <mxCell id="3KIOxPF4NHvI4WSVQsfi-2" value="Research Roles" style="rounded=0;whiteSpace=wrap;html=1;" vertex="1" parent="1">
          <mxGeometry x="40" y="395" width="110" height="45" as="geometry" />
        </mxCell>
        <mxCell id="3KIOxPF4NHvI4WSVQsfi-3" value="General Planning Team" style="rounded=0;whiteSpace=wrap;html=1;" vertex="1" parent="1">
          <mxGeometry x="-160" y="311" width="120" height="45" as="geometry" />
        </mxCell>
        <mxCell id="3KIOxPF4NHvI4WSVQsfi-4" value="General Planning Project" style="rounded=0;whiteSpace=wrap;html=1;" vertex="1" parent="1">
          <mxGeometry x="-160" y="408.5" width="120" height="45" as="geometry" />
        </mxCell>
        <mxCell id="3KIOxPF4NHvI4WSVQsfi-5" value="Get in contact" style="rounded=0;whiteSpace=wrap;html=1;" vertex="1" parent="1">
          <mxGeometry x="-160" y="215" width="120" height="45" as="geometry" />
        </mxCell>
        <mxCell id="3KIOxPF4NHvI4WSVQsfi-6" value="Review Plans" style="rounded=0;whiteSpace=wrap;html=1;" vertex="1" parent="1">
          <mxGeometry x="150" y="215" width="120" height="45" as="geometry" />
        </mxCell>
        <mxCell id="3KIOxPF4NHvI4WSVQsfi-7" value="Prepare Presentation" style="rounded=0;whiteSpace=wrap;html=1;" vertex="1" parent="1">
          <mxGeometry x="320" y="210" width="120" height="45" as="geometry" />
        </mxCell>
        <mxCell id="3KIOxPF4NHvI4WSVQsfi-8" value="Milestone 1" style="ellipse;whiteSpace=wrap;html=1;" vertex="1" parent="1">
          <mxGeometry x="420" y="311" width="120" height="80" as="geometry" />
        </mxCell>
        <mxCell id="3KIOxPF4NHvI4WSVQsfi-9" value="Document Results 1" style="rounded=0;whiteSpace=wrap;html=1;" vertex="1" parent="1">
          <mxGeometry x="670" y="20" width="120" height="32.5" as="geometry" />
        </mxCell>
        <mxCell id="3KIOxPF4NHvI4WSVQsfi-10" value="Document Results 2" style="rounded=0;whiteSpace=wrap;html=1;" vertex="1" parent="1">
          <mxGeometry x="1110" y="20" width="120" height="32.5" as="geometry" />
        </mxCell>
        <mxCell id="3KIOxPF4NHvI4WSVQsfi-11" value="Milestone 2" style="ellipse;whiteSpace=wrap;html=1;" vertex="1" parent="1">
          <mxGeometry x="1080" y="237.5" width="120" height="80" as="geometry" />
        </mxCell>
        <mxCell id="3KIOxPF4NHvI4WSVQsfi-12" value="Review Given Data" style="rounded=0;whiteSpace=wrap;html=1;" vertex="1" parent="1">
          <mxGeometry x="780" y="110" width="120" height="32.5" as="geometry" />
        </mxCell>
        <mxCell id="3KIOxPF4NHvI4WSVQsfi-13" value="Brainstorm Ideas" style="rounded=0;whiteSpace=wrap;html=1;" vertex="1" parent="1">
          <mxGeometry x="730" y="178.75" width="120" height="32.5" as="geometry" />
        </mxCell>
        <mxCell id="3KIOxPF4NHvI4WSVQsfi-14" value="Draft Project Plan" style="rounded=0;whiteSpace=wrap;html=1;" vertex="1" parent="1">
          <mxGeometry x="585" y="353.75" width="120" height="32.5" as="geometry" />
        </mxCell>
        <mxCell id="3KIOxPF4NHvI4WSVQsfi-17" value="Review Project Plan" style="rounded=0;whiteSpace=wrap;html=1;" vertex="1" parent="1">
          <mxGeometry x="735" y="397" width="120" height="32.5" as="geometry" />
        </mxCell>
        <mxCell id="3KIOxPF4NHvI4WSVQsfi-18" value="Prepare Presentation" style="rounded=0;whiteSpace=wrap;html=1;" vertex="1" parent="1">
          <mxGeometry x="820" y="317.5" width="120" height="32.5" as="geometry" />
        </mxCell>
        <mxCell id="3KIOxPF4NHvI4WSVQsfi-19" value="Ready Hours Excel Sheet" style="rounded=0;whiteSpace=wrap;html=1;" vertex="1" parent="1">
          <mxGeometry x="890" y="430" width="120" height="32.5" as="geometry" />
        </mxCell>
        <mxCell id="3KIOxPF4NHvI4WSVQsfi-20" value="&lt;div&gt;Research Petrinets on Intersections&lt;/div&gt;" style="rounded=0;whiteSpace=wrap;html=1;" vertex="1" parent="1">
          <mxGeometry x="820" y="487.5" width="120" height="32.5" as="geometry" />
        </mxCell>
        <mxCell id="3KIOxPF4NHvI4WSVQsfi-21" value="Petrinet Logic" style="rounded=0;whiteSpace=wrap;html=1;" vertex="1" parent="1">
          <mxGeometry x="830" y="533.75" width="120" height="32.5" as="geometry" />
        </mxCell>
        <mxCell id="3KIOxPF4NHvI4WSVQsfi-22" value="Draft Petrinet" style="rounded=0;whiteSpace=wrap;html=1;" vertex="1" parent="1">
          <mxGeometry x="1100" y="530" width="120" height="32.5" as="geometry" />
        </mxCell>
        <mxCell id="3KIOxPF4NHvI4WSVQsfi-23" value="Discussion Petrinet" style="rounded=0;whiteSpace=wrap;html=1;" vertex="1" parent="1">
          <mxGeometry x="1169" y="470" width="120" height="32.5" as="geometry" />
        </mxCell>
        <mxCell id="3KIOxPF4NHvI4WSVQsfi-24" value="Validate Petrinet" style="rounded=0;whiteSpace=wrap;html=1;" vertex="1" parent="1">
          <mxGeometry x="1300" y="517.5" width="120" height="32.5" as="geometry" />
        </mxCell>
        <mxCell id="3KIOxPF4NHvI4WSVQsfi-25" value="Decide on Data to Measure" style="rounded=0;whiteSpace=wrap;html=1;" vertex="1" parent="1">
          <mxGeometry x="1130" y="391" width="120" height="32.5" as="geometry" />
        </mxCell>
        <mxCell id="3KIOxPF4NHvI4WSVQsfi-26" value="Research reverse exponential distribution" style="rounded=0;whiteSpace=wrap;html=1;" vertex="1" parent="1">
          <mxGeometry x="1740" y="280" width="120" height="50" as="geometry" />
        </mxCell>
        <mxCell id="3KIOxPF4NHvI4WSVQsfi-27" value="Research Traffic in Anylogic" style="rounded=0;whiteSpace=wrap;html=1;" vertex="1" parent="1">
          <mxGeometry x="1945" y="502.5" width="110" height="40" as="geometry" />
        </mxCell>
        <mxCell id="3KIOxPF4NHvI4WSVQsfi-28" value="Ideas for Implementation" style="rounded=0;whiteSpace=wrap;html=1;" vertex="1" parent="1">
          <mxGeometry x="1945" y="630" width="110" height="40" as="geometry" />
        </mxCell>
        <mxCell id="3KIOxPF4NHvI4WSVQsfi-29" value="Research ANOVA" style="rounded=0;whiteSpace=wrap;html=1;" vertex="1" parent="1">
          <mxGeometry x="2830" y="430" width="140" height="60" as="geometry" />
        </mxCell>
        <mxCell id="3KIOxPF4NHvI4WSVQsfi-32" value="" style="endArrow=none;html=1;rounded=0;" edge="1" parent="1">
          <mxGeometry width="50" height="50" relative="1" as="geometry">
            <mxPoint x="1040" y="702.8571428571429" as="sourcePoint" />
            <mxPoint x="1040" as="targetPoint" />
          </mxGeometry>
        </mxCell>
        <mxCell id="3KIOxPF4NHvI4WSVQsfi-33" value="a" style="text;html=1;strokeColor=none;fillColor=none;align=center;verticalAlign=middle;whiteSpace=wrap;rounded=0;" vertex="1" parent="1">
          <mxGeometry x="1040" y="20" width="40" height="10" as="geometry" />
        </mxCell>
        <mxCell id="3KIOxPF4NHvI4WSVQsfi-34" value="a" style="text;html=1;strokeColor=none;fillColor=none;align=center;verticalAlign=middle;whiteSpace=wrap;rounded=0;" vertex="1" parent="1">
          <mxGeometry x="1000" y="20" width="40" height="10" as="geometry" />
        </mxCell>
        <mxCell id="3KIOxPF4NHvI4WSVQsfi-35" value="b" style="text;html=1;strokeColor=none;fillColor=none;align=center;verticalAlign=middle;whiteSpace=wrap;rounded=0;" vertex="1" parent="1">
          <mxGeometry x="1000" y="110" width="40" height="10" as="geometry" />
        </mxCell>
        <mxCell id="3KIOxPF4NHvI4WSVQsfi-36" value="b" style="text;html=1;strokeColor=none;fillColor=none;align=center;verticalAlign=middle;whiteSpace=wrap;rounded=0;" vertex="1" parent="1">
          <mxGeometry x="1040" y="110" width="40" height="10" as="geometry" />
        </mxCell>
        <mxCell id="3KIOxPF4NHvI4WSVQsfi-38" value="c" style="text;html=1;strokeColor=none;fillColor=none;align=center;verticalAlign=middle;whiteSpace=wrap;rounded=0;" vertex="1" parent="1">
          <mxGeometry x="1070" y="330" width="40" height="10" as="geometry" />
        </mxCell>
        <mxCell id="3KIOxPF4NHvI4WSVQsfi-39" value="c" style="text;html=1;strokeColor=none;fillColor=none;align=center;verticalAlign=middle;whiteSpace=wrap;rounded=0;" vertex="1" parent="1">
          <mxGeometry x="990" y="263.5" width="40" height="10" as="geometry" />
        </mxCell>
        <mxCell id="3KIOxPF4NHvI4WSVQsfi-42" value="d" style="text;html=1;strokeColor=none;fillColor=none;align=center;verticalAlign=middle;whiteSpace=wrap;rounded=0;" vertex="1" parent="1">
          <mxGeometry x="920" y="255" width="40" height="10" as="geometry" />
        </mxCell>
        <mxCell id="3KIOxPF4NHvI4WSVQsfi-43" value="d" style="text;html=1;strokeColor=none;fillColor=none;align=center;verticalAlign=middle;whiteSpace=wrap;rounded=0;" vertex="1" parent="1">
          <mxGeometry x="1050" y="385" width="40" height="10" as="geometry" />
        </mxCell>
        <mxCell id="3KIOxPF4NHvI4WSVQsfi-44" value="e" style="text;html=1;strokeColor=none;fillColor=none;align=center;verticalAlign=middle;whiteSpace=wrap;rounded=0;" vertex="1" parent="1">
          <mxGeometry x="1050" y="267" width="40" height="10" as="geometry" />
        </mxCell>
        <mxCell id="3KIOxPF4NHvI4WSVQsfi-45" value="e" style="text;html=1;strokeColor=none;fillColor=none;align=center;verticalAlign=middle;whiteSpace=wrap;rounded=0;" vertex="1" parent="1">
          <mxGeometry x="950" y="328.75" width="40" height="10" as="geometry" />
        </mxCell>
        <mxCell id="3KIOxPF4NHvI4WSVQsfi-46" value="f" style="text;html=1;strokeColor=none;fillColor=none;align=center;verticalAlign=middle;whiteSpace=wrap;rounded=0;" vertex="1" parent="1">
          <mxGeometry x="1000" y="510" width="40" height="10" as="geometry" />
        </mxCell>
        <mxCell id="3KIOxPF4NHvI4WSVQsfi-47" value="f" style="text;html=1;strokeColor=none;fillColor=none;align=center;verticalAlign=middle;whiteSpace=wrap;rounded=0;" vertex="1" parent="1">
          <mxGeometry x="1040" y="520" width="40" height="10" as="geometry" />
        </mxCell>
        <mxCell id="3KIOxPF4NHvI4WSVQsfi-48" value="g" style="text;html=1;strokeColor=none;fillColor=none;align=center;verticalAlign=middle;whiteSpace=wrap;rounded=0;" vertex="1" parent="1">
          <mxGeometry x="1040" y="562.5" width="40" height="10" as="geometry" />
        </mxCell>
        <mxCell id="3KIOxPF4NHvI4WSVQsfi-49" value="g" style="text;html=1;strokeColor=none;fillColor=none;align=center;verticalAlign=middle;whiteSpace=wrap;rounded=0;" vertex="1" parent="1">
          <mxGeometry x="1000" y="556.25" width="40" height="10" as="geometry" />
        </mxCell>
      </root>
    </mxGraphModel>
  </diagram>
</mxfile>
